<?xml version="1.0" encoding="UTF-8"?>
<svg id="NoInternet_Logo" xmlns="http://www.w3.org/2000/svg" xmlns:xlink="http://www.w3.org/1999/xlink" viewBox="0 0 527.58 520">
  <defs>
    <linearGradient id="linear-gradient" x1="222.42" y1="385" x2="527.58" y2="385" gradientUnits="userSpaceOnUse">
      <stop offset=".5" stop-color="#ed1c24"/>
      <stop offset=".5" stop-color="#be1e2d"/>
    </linearGradient>
    <linearGradient id="linear-gradient-2" x1="351.07" y1="468.89" x2="398.93" y2="468.89" gradientUnits="userSpaceOnUse">
      <stop offset=".5" stop-color="#d1d3d4"/>
      <stop offset=".5" stop-color="#f1f2f2"/>
    </linearGradient>
    <linearGradient id="linear-gradient-3" y1="364.92" y2="364.92" xlink:href="#linear-gradient-2"/>
  </defs>
  <g id="Globe">
    <path id="Side_8" d="m500,250c0,138.07-111.93,250-250,250,69.03,0,125-111.93,125-250h125Z" style="fill: #080087;"/>
    <path id="Side_7" d="m375,250c0,138.07-55.97,250-125,250v-250h125Z" style="fill: #07299f;"/>
    <path id="Side_6" d="m250,250v250c-69.03,0-125-111.93-125-250h125Z" style="fill: #0553b6;"/>
    <path id="Side_5" d="m250,500C111.93,500,0,388.07,0,250h125c0,138.07,55.97,250,125,250Z" style="fill: #047cce;"/>
    <path id="Side_4" d="m500,250h-125C375,111.93,319.03,0,250,0c138.07,0,250,111.93,250,250Z" style="fill: #07299f;"/>
    <path id="Side_3" d="m375,250h-125V0c69.03,0,125,111.93,125,250Z" style="fill: #0553b6;"/>
    <path id="Side_2" d="m250,0v250h-125C125,111.93,180.97,0,250,0Z" style="fill: #047cce;"/>
    <path id="Side_1" d="m250,0c-69.03,0-125,111.93-125,250H0C0,111.93,111.93,0,250,0Z" style="fill: #02a5e5;"/>
  </g>
  <path id="HazardTriangle" d="m356.29,260.8l-130.94,226.8c-8.31,14.4,2.08,32.4,18.71,32.4h261.89c16.63,0,27.02-18,18.71-32.4l-130.94-226.8c-8.31-14.4-29.1-14.4-37.41,0Z" style="fill: url(#linear-gradient);"/>
  <g id="Exclamation_Point" data-name="Exclamation Point">
    <circle id="Point" cx="375" cy="468.89" r="23.93" style="fill: url(#linear-gradient-2);"/>
    <path id="Exclamation" d="m367.16,423.31l-15.61-90.79c-2.98-17.32,8.35-33.49,23.46-33.49h0c15.11,0,26.43,16.17,23.46,33.49l-15.61,90.79c-1.72,10.01-13.96,10.01-15.69,0Z" style="fill: url(#linear-gradient-3);"/>
  </g>
</svg>